<?xml version="1.0" encoding="UTF-8" standalone="no"?>
<!-- Created with Inkscape (http://www.inkscape.org/) -->

<svg
   width="160"
   height="160"
   viewBox="0 0 42.333332 42.333332"
   version="1.1"
   id="svg1068"
   sodipodi:docname="logo.svg"
   inkscape:export-filename="C:\Users\Pyro\source\repos\Stream-Flare\Stream-Flare\logos\1024.png"
   inkscape:export-xdpi="614.40002"
   inkscape:export-ydpi="614.40002"
   inkscape:version="1.1.2 (b8e25be833, 2022-02-05)"
   xmlns:inkscape="http://www.inkscape.org/namespaces/inkscape"
   xmlns:sodipodi="http://sodipodi.sourceforge.net/DTD/sodipodi-0.dtd"
   xmlns="http://www.w3.org/2000/svg"
   xmlns:svg="http://www.w3.org/2000/svg">
  <sodipodi:namedview
     id="namedview1070"
     pagecolor="#505050"
     bordercolor="#ffffff"
     borderopacity="1"
     inkscape:pageshadow="0"
     inkscape:pageopacity="0"
     inkscape:pagecheckerboard="1"
     inkscape:document-units="mm"
     showgrid="true"
     width="160mm"
     units="px"
     inkscape:zoom="4.0718557"
     inkscape:cx="128.31987"
     inkscape:cy="77.483099"
     inkscape:window-width="1920"
     inkscape:window-height="1001"
     inkscape:window-x="-9"
     inkscape:window-y="-9"
     inkscape:window-maximized="1"
     inkscape:current-layer="layer1" />
  <defs
     id="defs1065" />
  <g
     inkscape:label="Layer 1"
     inkscape:groupmode="layer"
     id="layer1">
    <path
       id="path54-8-9-4-9-8-3-9-3-9-3"
       style="fill:#222222;fill-opacity:1;stroke-width:0.28652"
       class="st1"
       d="M 21.69583,4.7625008 A 16.929913,16.933374 0 0 0 4.7625003,21.695829 16.929913,16.933374 0 0 0 21.69583,38.629162 16.929913,16.933374 0 0 0 38.62968,21.695829 16.929913,16.933374 0 0 0 21.69583,4.7625008 Z m 0,1.776119 a 15.154659,15.157757 0 0 1 15.152047,15.1577252 15.154659,15.157757 0 0 1 -0.0956,1.604037 h -0.819071 l -5.29e-4,-0.802018 h -1.948201 v 0.744657 h -0.630452 v 1.375627 h -1.575615 v -0.602031 h 0.343649 l -0.05736,-0.744657 -1.948201,-0.02894 v -1.404048 l 0.286288,-0.02842 v -0.372587 h -0.91674 l -0.200505,-1.919779 0.372587,-0.05736 v -0.343648 l -0.401009,-0.02894 -0.888318,-6.732922 -1.203544,6.732922 -0.429948,0.02894 0.02894,0.372587 0.372587,0.02842 -0.200504,1.948718 h -0.917257 v 0.372071 l 0.257866,0.02894 v 2.148706 h -1.002527 c -0.114611,-1.317994 -0.830989,-2.091654 -1.91978,-2.435513 V 21.065376 L 23.182551,20.950655 V 19.83341 l 0.172082,-0.08578 v -0.286804 c -0.0859,-0.02867 -0.171854,-0.02856 -0.200504,-0.143144 -0.0573,-0.17193 -0.200954,-0.286287 -0.401526,-0.286287 -0.200562,0 -0.343698,0.08579 -0.401009,0.286287 -0.0287,0.114585 -0.114544,0.114472 -0.200505,0.143144 v 0.286804 l 0.172083,0.08578 v 1.088823 l -0.172083,0.114721 v 0.544153 c -0.286522,0.114586 -0.544384,0.229329 -0.773596,0.372587 -0.114621,0.08602 -0.229265,0.143177 -0.315226,0.257866 -0.487085,0.429772 -0.744718,1.031011 -0.802018,1.80454 H 19.72024 V 6.6941648 a 15.154659,15.157757 0 0 1 1.97559,-0.155545 z m -9.265067,3.202901 V 23.988712 H 11.63598 V 17.340539 H 10.977105 V 16.653242 H 8.5415953 v 0.687297 h -0.716236 l -0.02842,2.750737 h -0.51573 v 3.466971 H 6.6734933 A 15.154659,15.157757 0 0 1 6.5437853,21.696345 15.154659,15.157757 0 0 1 12.430763,9.7415208 Z M 7.7783343,27.626733 h 4.6524287 v 6.024439 A 15.154659,15.157757 0 0 1 7.7783343,27.626733 Z m 11.9419057,0 H 35.634514 A 15.154659,15.157757 0 0 1 21.69583,36.853559 15.154659,15.157757 0 0 1 19.72024,36.698013 Z" />
    <circle
       style="fill:#e35252;fill-opacity:1;stroke:none;stroke-width:0.264583;stroke-linecap:square;stroke-dashoffset:22;paint-order:stroke markers fill"
       id="path919"
       cx="21.192968"
       cy="21.192968"
       r="16.404167" />
    <path
       id="path54-8-9-4-9-8-3-9-3-9"
       style="fill:#ffffff;fill-opacity:1;stroke-width:0.28652"
       class="st1"
       d="M 21.166663,4.2333338 A 16.929913,16.933374 0 0 0 4.2333333,21.166663 16.929913,16.933374 0 0 0 21.166663,38.099996 16.929913,16.933374 0 0 0 38.100513,21.166663 16.929913,16.933374 0 0 0 21.166663,4.2333338 Z m 0,1.77612 a 15.154659,15.157757 0 0 1 15.152047,15.1577252 15.154659,15.157757 0 0 1 -0.0956,1.604037 h -0.819071 l -5.29e-4,-0.802018 h -1.948201 v 0.744657 h -0.630452 v 1.375627 h -1.575615 v -0.602031 h 0.343649 l -0.05736,-0.744657 -1.948201,-0.02894 v -1.404048 l 0.286288,-0.02842 v -0.372587 h -0.91674 L 28.756373,18.98902 29.12896,18.93166 v -0.343648 l -0.401009,-0.02894 -0.888318,-6.732922 -1.203544,6.732922 -0.429948,0.02894 0.02894,0.372587 0.372587,0.02842 -0.200504,1.948718 h -0.917257 v 0.372071 l 0.257866,0.02894 v 2.148706 H 24.745246 C 24.630635,22.16946 23.914257,21.3958 22.825466,21.051941 V 20.53621 l -0.172082,-0.114721 v -1.117245 l 0.172082,-0.08578 V 18.93166 c -0.0859,-0.02867 -0.171854,-0.02856 -0.200504,-0.143144 -0.0573,-0.17193 -0.200954,-0.286287 -0.401526,-0.286287 -0.200562,0 -0.343698,0.08579 -0.401009,0.286287 -0.0287,0.114585 -0.114544,0.114472 -0.200505,0.143144 v 0.286804 l 0.172083,0.08578 v 1.088823 l -0.172083,0.114721 v 0.544153 c -0.286522,0.114586 -0.544384,0.229329 -0.773596,0.372587 -0.114621,0.08602 -0.229265,0.143177 -0.315226,0.257866 -0.487085,0.429772 -0.744718,1.031011 -0.802018,1.80454 H 19.191073 V 6.1649988 a 15.154659,15.157757 0 0 1 1.97559,-0.155545 z m -9.265067,3.202901 V 23.459546 H 11.106813 V 16.811373 H 10.447938 V 16.124076 H 8.0124283 v 0.687297 h -0.716236 l -0.02842,2.750737 h -0.51573 v 3.466971 H 6.1443263 A 15.154659,15.157757 0 0 1 6.0146183,21.167179 15.154659,15.157757 0 0 1 11.901596,9.2123548 Z M 7.2491673,27.097567 h 4.6524287 v 6.024439 A 15.154659,15.157757 0 0 1 7.2491673,27.097567 Z m 11.9419057,0 h 15.914274 a 15.154659,15.157757 0 0 1 -13.938684,9.226826 15.154659,15.157757 0 0 1 -1.97559,-0.155546 z" />
  </g>
</svg>
